<svg xmlns="http://www.w3.org/2000/svg" id="Layer_1" viewBox="0 0 1000 500"><defs><style>      .st0 {        fill: #1dd1b6;      }      .st1 {        fill: #fff;      }    </style></defs><path class="st0" d="M255.3,320.5h.2c0,0-74.7-144.5-74.7-144.5-3.3-6.4-9.9-10.5-17.2-10.5-7.2,0-13.8,3.9-17.1,10.3l-68.6,128c-4.3,8-2.6,17.4,4,23.5,6.7,6.1,16.2,6.9,23.7,2l40.2-26.2c10.8-7,23.3-10.6,36-10.6,5.7,0,11.3.7,16.9,2.2,18,4.8,33.2,17,41.8,33.6,1.4,2.8,4.3,4.5,7.3,4.5s5.7-1.5,7.2-4c1.5-2.5,1.6-5.6.2-8.3ZM178.6,261.8h0s-82,53.4-82,53.4c-.5.3-1,.5-1.5.5s-1.2-.3-1.9-.9c-.6-.6-1.3-1.7-.4-3.2l68.6-128.1c.5-1.1,1.6-1.3,2.4-1.3s1.9.5,2.3,1.4l22,42.6c6.5,12.6,2.4,27.9-9.4,35.6Z"></path><path class="st0" d="M327.9,257.5c-.4,0-.9.2-1.3.2l56.7-34.6c4.1-2.5,5.2-7.6,2.7-11.7-2.2-4-7.6-5.4-11.7-2.9l-88.7,54.2v-88.3c0-4.7-3.9-8.6-8.6-8.6-4.7,0-8.5,3.9-8.5,8.6v149.3c0,4.7,3.8,8.5,8.5,8.5,4.7,0,8.6-3.9,8.6-8.5v-6.6c0-23.4,18.9-42.4,42.4-42.4,23.4,0,42.4,18.9,42.4,42.4v6.6c0,4.7,3.8,8.5,8.5,8.5,4.8,0,8.6-3.9,8.6-8.5v-6.6c0-32.9-26.6-59.7-59.5-59.7h0Z"></path><path class="st0" d="M516,207.2c-4.7,0-8.7,3.8-8.7,8.6v10.9c-13.8-14.6-34.4-22.7-56.9-18.4-24.9,4.4-44.9,24.1-49.5,48.8-7.9,39.9,22.7,75,61.3,75,8.3,0,16.6-1.9,24.1-5,2.6-1.1,5-2.7,6.8-4.7,1.5-1.5,2.4-3.6,2.4-5.8,0-4.4-3.6-8-8-8-1.2,0-2.2.2-3.2.6-13.3,7.5-30.4,8-45.3-.6-11.4-6.5-19.3-18-21.5-30.8-5.1-28.6,17-53.6,44.7-53.6,24.9,0,45.2,20.2,45.2,45.4v54c0,4.7,4,8.5,8.7,8.5,4.8,0,8.6-3.8,8.6-8.5v-107.9c0-4.8-3.8-8.6-8.6-8.6h0Z"></path><path class="st0" d="M657,228.2c-11.9-13.3-29-21-46.9-21-17.1,0-33.6,6.9-45.3,19.6v-11c0-4.7-3.8-8.5-8.8-8.5-4.7,0-8.5,3.8-8.5,8.5v107.9c0,4.7,3.8,8.5,8.5,8.5,5,0,8.8-3.9,8.8-8.5v-54.1c0-11.3,4-22.3,11.9-30.6,8.5-9.2,20.8-14.6,33.3-14.6,13.1,0,25.5,5.7,34,15.3,3.2,3.6,8.5,3.8,12.2.7,3.4-3.1,3.8-8.5.6-12.2h.2Z"></path><path class="st0" d="M682.6,207.2c-4.8,0-8.5,3.8-8.5,8.5v107.9c0,4.7,3.8,8.5,8.5,8.5s8.5-3.9,8.5-8.5v-107.9c0-4.7-3.8-8.5-8.5-8.5Z"></path><g><path class="st1" d="M760.2,165.8c-1.4,23.5-20.4,42.4-43.8,43.8v17c32.8-1.7,59.2-28,60.8-60.8h-17Z"></path><path class="st1" d="M842.6,170.4c-31.7,0-59.1,17.9-72.9,44.3h0c-2.8,5.4-5.1,11.3-6.6,17.3-1.8,6.6-2.6,13.5-2.6,20.7v71c0,4.7,3.8,8.5,8.5,8.5,4.7,0,8.5-3.8,8.5-8.5v-21.1c7.5,9.7,17.2,17.7,28.3,23.3,11.1,5.6,23.6,8.7,36.9,8.7,45.2,0,82-36.8,82-82,0-45.4-36.8-82.2-82-82.2ZM842.6,318c-34,0-62.1-26.1-65.1-59.4-.2-2-.3-4-.3-6s0-4,.3-6c3-33.3,31.1-59.4,65.1-59.4,36.1,0,65.2,29.4,65.2,65.4,0,36-29.1,65.4-65.2,65.4Z"></path></g><circle class="st0" cx="682.6" cy="174.3" r="8.6"></circle></svg>