<svg xmlns="http://www.w3.org/2000/svg" viewBox="0 0 512 512"><path fill="#4285f4" d="M464 128h-48v-48h-48v48H144v-48h-48v48H48a24 24 0 00-24 24v288a24 24 0 0024 24h416a24 24 0 0024-24V152a24 24 0 00-24-24z"/><path fill="#1e8e3e" d="M488 152a24 24 0 00-24-24H48a24 24 0 00-24 24v48h488z"/><path fill="#f9ab00" d="M488 440a24 24 0 0024-24V152l-256 256z"/><g fill="#f2f2f2"><path d="M144 80h48v48h-48zM320 80h48v48h-48z"/></g><path fill="#ffffff" d="M256 200h-48v-48h48z"/><path fill="#1a73e8" d="M488 440H232l256-256z"/><text x="256" y="370" font-family="Roboto,Arial,sans-serif" font-size="200" fill="#ffffff" text-anchor="middle">31</text></svg>
