<svg xmlns="http://www.w3.org/2000/svg" viewBox="0 0 512 512"><path fill="#ea4335" d="M64 128V384L256 256z"/><path fill="#c5221f" d="M64 128l192 128-192 128V128z"/><path fill="#4285f4" d="M448 128v256l-96-76.8V204.8z"/><path fill="#1a73e8" d="M352 204.8V307.2L448 384V128z"/><path fill="#34a853" d="M154.6 128H352v76.8L256 256z"/><path fill="#1e8e3e" d="M154.6 128L256 256l96-51.2V128z"/><path fill="#fbbc04" d="M64 128l90.6 72L64 272z"/><path fill="#f9ab00" d="M64 128v144l90.6-72z"/><path d="M448 128h-96v76.8l96-76.8z" fill="#ffbc04"/><path d="M448 128l-96 76.8V128h96z" fill="#f9ab00"/><path d="M64 384l192-128 192 128H64z" fill="#e0e0e0"/><path d="M64 384v-1H256l192 1V384z" fill="#c5221f"/><path d="M64 384h384L256 256 64 384z" fill="#f2f2f2"/></svg>
